HIERARCHY
ROOT hip
{
  OFFSET 0 0 0
  CHANNELS 6 Xposition Yposition Zposition Zrotation Yrotation Xrotation
  JOINT abdomen
  {
    OFFSET 0 20.6881 -0.73152
    CHANNELS 3 Zrotation Xrotation Yrotation
    JOINT chest
    {
      OFFSET 0 11.7043 -0.48768
      CHANNELS 3 Zrotation Xrotation Yrotation
      JOINT neck
      {
        OFFSET 0 22.1894 -2.19456
        CHANNELS 3 Zrotation Xrotation Yrotation
        JOINT head
        {
          OFFSET -0.24384 7.07133 1.2192
          CHANNELS 3 Zrotation Xrotation Yrotation
          JOINT leftEye
          {
            OFFSET 4.14528 8.04674 8.04672
            CHANNELS 3 Zrotation Xrotation Yrotation
            End Site
            {
              OFFSET 1 0 0
            }
          }
          JOINT rightEye
          {
            OFFSET -3.6576 8.04674 8.04672
            CHANNELS 3 Zrotation Xrotation Yrotation
            End Site
            {
              OFFSET 1 0 0
            }
          }
        }
      }
      JOINT rCollar
      {
        OFFSET -2.68224 19.2634 -4.8768
        CHANNELS 3 Zrotation Xrotation Yrotation
        JOINT rShldr
        {
          OFFSET -8.77824 -1.95073 1.46304
          CHANNELS 3 Zrotation Xrotation Yrotation
          JOINT rForeArm
          {
            OFFSET -28.1742 -1.7115 0.48768
            CHANNELS 3 Zrotation Xrotation Yrotation
            JOINT rHand
            {
              OFFSET -22.5879 0.773209 7.07136
              CHANNELS 3 Zrotation Xrotation Yrotation
              JOINT rThumb1
              {
                OFFSET -1.2192 -0.487915 3.41376
                CHANNELS 3 Zrotation Xrotation Yrotation
                JOINT rThumb2
                {
                  OFFSET -3.37035 -0.52449 3.41376
                  CHANNELS 3 Zrotation Xrotation Yrotation
                  End Site
                  {
                    OFFSET -1.78271 -1.18214 1.43049
                  }
                }
              }
              JOINT rIndex1
              {
                OFFSET -7.75947 0.938293 5.60832
                CHANNELS 3 Zrotation Xrotation Yrotation
                JOINT rIndex2
                {
                  OFFSET -2.54057 -0.884171 1.56538
                  CHANNELS 3 Zrotation Xrotation Yrotation
                  End Site
                  {
                    OFFSET -1.62519 -0.234802 1.16502
                  }
                }
              }
              JOINT rMid1
              {
                OFFSET -8.24714 1.18213 3.41376
                CHANNELS 3 Zrotation Xrotation Yrotation
                JOINT rMid2
                {
                  OFFSET -3.10165 -0.590103 1.0647
                  CHANNELS 3 Zrotation Xrotation Yrotation
                  End Site
                  {
                    OFFSET -2.48547 -0.328903 0.83742
                  }
                }
              }
              JOINT rRing1
              {
                OFFSET -8.82822 0.546677 1.51678
                CHANNELS 3 Zrotation Xrotation Yrotation
                JOINT rRing2
                {
                  OFFSET -2.60934 -0.819778 -0.0198488
                  CHANNELS 3 Zrotation Xrotation Yrotation
                  End Site
                  {
                    OFFSET -2.33842 -0.294052 0.168128
                  }
                }
              }
              JOINT rPinky1
              {
                OFFSET -8.27202 -0.0477905 -0.4584
                CHANNELS 3 Zrotation Xrotation Yrotation
                JOINT rPinky2
                {
                  OFFSET -1.82734 -0.647385 -0.700984
                  CHANNELS 3 Zrotation Xrotation Yrotation
                  End Site
                  {
                    OFFSET -1.69225 -0.51767 -0.607171
                  }
                }
              }
            }
          }
        }
      }
      JOINT lCollar
      {
        OFFSET 2.68224 19.2634 -4.8768
        CHANNELS 3 Zrotation Xrotation Yrotation
        JOINT lShldr
        {
          OFFSET 8.77824 -1.95073 1.46304
          CHANNELS 3 Zrotation Xrotation Yrotation
          JOINT lForeArm
          {
            OFFSET 28.1742 -1.7115 0.48768
            CHANNELS 3 Zrotation Xrotation Yrotation
            JOINT lHand
            {
              OFFSET 22.5879 0.773209 7.07136
              CHANNELS 3 Zrotation Xrotation Yrotation
              JOINT lThumb1
              {
                OFFSET 1.2192 -0.487915 3.41376
                CHANNELS 3 Zrotation Xrotation Yrotation
                JOINT lThumb2
                {
                  OFFSET 3.37035 -0.52449 3.41376
                  CHANNELS 3 Zrotation Xrotation Yrotation
                  End Site
                  {
                    OFFSET 1.78271 -1.18214 1.43049
                  }
                }
              }
              JOINT lIndex1
              {
                OFFSET 7.75947 0.938293 5.60832
                CHANNELS 3 Zrotation Xrotation Yrotation
                JOINT lIndex2
                {
                  OFFSET 2.54057 -0.884171 1.56538
                  CHANNELS 3 Zrotation Xrotation Yrotation
                  End Site
                  {
                    OFFSET 1.62519 -0.234802 1.16502
                  }
                }
              }
              JOINT lMid1
              {
                OFFSET 8.24714 1.18213 3.41376
                CHANNELS 3 Zrotation Xrotation Yrotation
                JOINT lMid2
                {
                  OFFSET 3.10165 -0.590103 1.0647
                  CHANNELS 3 Zrotation Xrotation Yrotation
                  End Site
                  {
                    OFFSET 2.48547 -0.328903 0.83742
                  }
                }
              }
              JOINT lRing1
              {
                OFFSET 8.82822 0.546677 1.51678
                CHANNELS 3 Zrotation Xrotation Yrotation
                JOINT lRing2
                {
                  OFFSET 2.60934 -0.819778 -0.0198488
                  CHANNELS 3 Zrotation Xrotation Yrotation
                  End Site
                  {
                    OFFSET 2.33842 -0.294052 0.168128
                  }
                }
              }
              JOINT lPinky1
              {
                OFFSET 8.27202 -0.0477905 -0.4584
                CHANNELS 3 Zrotation Xrotation Yrotation
                JOINT lPinky2
                {
                  OFFSET 1.82734 -0.647385 -0.700984
                  CHANNELS 3 Zrotation Xrotation Yrotation
                  End Site
                  {
                    OFFSET 1.69225 -0.51767 -0.607171
                  }
                }
              }
            }
          }
        }
      }
    }
  }
  JOINT rButtock
  {
    OFFSET -8.77824 4.35084 1.2192
    CHANNELS 3 Zrotation Xrotation Yrotation
    JOINT rThigh
    {
      OFFSET 0 -1.70687 -2.19456
      CHANNELS 3 Zrotation Xrotation Yrotation
      JOINT rShin
      {
        OFFSET 0 -36.8199 0.73152
        CHANNELS 3 Zrotation Xrotation Yrotation
        JOINT rFoot
        {
          OFFSET 0.73152 -45.1104 -5.12064
          CHANNELS 3 Zrotation Xrotation Yrotation
          End Site
          {
            OFFSET -1.1221 -3.69964 12.103
          }
        }
      }
    }
  }
  JOINT lButtock
  {
    OFFSET 8.77824 4.35084 1.2192
    CHANNELS 3 Zrotation Xrotation Yrotation
    JOINT lThigh
    {
      OFFSET 0 -1.70687 -2.19456
      CHANNELS 3 Zrotation Xrotation Yrotation
      JOINT lShin
      {
        OFFSET 0 -36.8199 0.73152
        CHANNELS 3 Zrotation Xrotation Yrotation
        JOINT lFoot
        {
          OFFSET -0.73152 -45.1104 -5.12064
          CHANNELS 3 Zrotation Xrotation Yrotation
          End Site
          {
            OFFSET 1.1221 -3.69964 12.103
          }
        }
      }
    }
  }
}
MOTION
Frames:	7
Frame Time:	0.03333
0.0 0.0 0.0 0.0 0.0 0.0 0.0 0.0 0.0 0.0 0.0 0.0 0.0 0.0 0.0 0.0 0.0 0.0 0.0 0.0 0.0 0.0 0.0 0.0 0.0 0.0 0.0 0.0 0.0 0.0 0.0 0.0 0.0 0.0 0.0 0.0 0.0 0.0 0.0 0.0 0.0 0.0 0.0 0.0 0.0 0.0 0.0 0.0 0.0 0.0 0.0 0.0 0.0 0.0 0.0 0.0 0.0 0.0 0.0 0.0 0.0 0.0 0.0 0.0 0.0 0.0 0.0 0.0 0.0 0.0 0.0 0.0 0.0 0.0 0.0 0.0 0.0 0.0 0.0 0.0 0.0 0.0 0.0 0.0 0.0 0.0 0.0 0.0 0.0 0.0 0.0 0.0 0.0 0.0 0.0 0.0 0.0 0.0 0.0 0.0 0.0 0.0 0.0 0.0 0.0 0.0 0.0 0.0 0.0 0.0 0.0 0.0 0.0 0.0 0.0 0.0 0.0 0.0 0.0 0.0 0.0 0.0 0.0 0.0 0.0 0.0 0.0 0.0 0.0 0.0 0.0 0.0
-0.0106 63.830299999999994 -0.12240000000000001 -179.985278 -73.804784 178.822485 0.086242 4.819486 -0.0 7.91119 3.669775 -44.798427 -9.27083 -10.199661 -94.68032 36.266447 37.021926 120.105294 -164.659418 -10.810158 -70.17975 164.756271 11.451267 -73.686315 62.517927 23.663659 17.492968 57.448969 -89.072088 37.116464 80.194887 -67.794706 -98.637049 55.550501 62.902704 -131.663333 171.548906 23.201141 50.847584 31.0767 77.729018 142.575703 132.519804 2.112653 -104.316905 105.573299 24.971691 -92.976518 0.135695 29.695478 -147.237347 -2.258056 57.413908 100.869707 -98.779304 12.604819 -101.274136 -90.45346 86.479523 88.447021 -71.607088 6.764776 -82.8521 -165.155199 -18.130937 -147.176003 60.631295 -87.628585 154.955027 165.373507 -0.505361 -176.003425 -0.605753 37.882616 178.68379 -5.590306 -16.679335 85.875169 -168.239955 7.683524 -43.835966 63.339076 -35.728382 -18.301273 178.895471 1.503828 -167.188164 -157.600843 -33.421493 89.761692 105.572243 50.645143 22.612043 23.736084 22.267238 176.99325 104.816134 13.546327 73.258366 -136.875984 32.588232 127.325219 -41.795991 11.020901 43.15161 -2.73417 20.374047 25.839519 -51.219246 -5.317352 -86.310655 -1.408315 53.226867 1.111409 -2.211236 4.501845 -160.395775 51.362296 -58.824702 -118.537905 50.708794 9.077438 98.103474 0.913782 52.391113 -0.712838 -2.835905 2.709027 -141.744832 -72.678248 0.186295 85.568881
-0.6465000000000001 60.038000000000004 -0.7694000000000001 175.370976 36.449709 -179.840696 -10.366631 6.91559 -88.201896 1.354479 4.602841 88.429994 -4.643521 12.171844 -13.30132 8.410213 -30.684311 -18.543526 42.95966 12.409492 30.88918 24.373669 -6.790005 -30.719181 -8.467222 42.019429 7.897912 -59.675566 45.889949 115.38901 1.201335 42.891966 -75.923527 167.164378 -20.024804 143.688256 -2.951798 -9.763677 2.162846 -30.699245 40.575041 27.749257 91.380158 -70.089377 43.927696 -14.128085 -4.698021 13.138483 -177.365091 -14.50912 168.416952 -12.922166 -70.951744 -52.492513 -150.828543 -2.373662 172.561824 -165.684473 0.37801 177.881833 -141.827893 47.088484 -158.111207 -133.840916 63.441815 -178.015641 25.251531 49.45993 -34.618158 -75.804588 -23.164479 -59.161295 169.614769 -4.765125 -104.209738 -172.635828 -12.002902 -140.217097 -3.75494 8.735192 -13.962015 148.715656 -11.590689 -168.213248 76.764306 25.817148 -28.161572 109.385287 -27.312737 -77.76681 -2.770185 0.103674 -11.102569 165.229201 -66.002916 -178.314415 145.603195 2.065478 175.313078 113.810909 -62.665934 143.28416 137.123072 16.346574 157.314728 -1.802467 -45.978229 25.189159 -35.466256 10.590773 -8.721763 19.627875 -51.096043 -180.0 -28.698232 -55.635735 -94.055832 -46.910658 -35.608713 -149.690385 162.496304 78.315345 0.0 -120.534522 53.983049 -180.0 -26.187553 -28.851371 171.606232 -121.79528 -6.62372 9.936098
-0.3702 66.2 -1.6699 174.908832 27.951848 178.368855 -12.194838 14.287376 -89.714993 7.370647 6.414492 87.545883 7.03091 29.885298 124.612915 -36.25258 31.397801 -156.436123 -31.000899 5.256786 -18.797643 13.484196 -0.801905 -6.775482 -22.81188 60.378328 25.998858 -158.928648 -38.350218 123.176036 151.859626 -78.528241 73.760236 164.412224 -16.963843 148.016237 -177.948595 2.33971 87.477511 20.746339 -43.218223 32.445026 -33.568724 -78.510931 -98.013536 7.835251 22.763468 27.835318 -161.761919 -0.349895 150.078349 -3.206825 61.748495 16.376599 -129.918624 -5.708421 -165.333318 -129.123255 -37.415486 -171.286053 -137.737506 -34.594847 -153.535213 126.88447 -50.813894 157.457207 10.107056 22.078145 -19.538029 55.747672 49.814571 -118.124587 -57.061765 75.911737 129.064647 -172.848013 -4.470267 -137.765404 7.480097 -1.051959 -10.990006 39.402567 42.983558 -9.949468 172.796471 -17.445947 -113.752309 -73.043123 -70.239734 -47.440781 -89.64751 -76.149194 -73.360236 -153.151334 -61.817817 -120.354191 149.761176 6.819125 -176.772108 166.396875 0.542441 -178.849487 167.089932 18.32043 166.804712 123.662945 54.756899 -151.450551 -5.837362 -4.814622 7.034441 -39.51584 -41.351527 128.695217 33.962 -58.467101 131.515516 3.169559 -26.296352 99.217764 83.17827 57.186923 45.259356 -72.037552 30.860403 126.357099 10.561534 -44.915881 80.346934 -6.335528 46.564105 123.220325
0.7852 65.5234 -1.8523 175.250243 32.121666 -179.911322 -15.053625 14.269265 3.171739 10.785675 -11.430869 -10.94571 -16.234992 36.726273 -163.741331 -5.291124 52.327708 140.1528 -58.370613 12.624371 -22.404242 13.630987 -0.141279 -1.182037 -84.013535 62.97135 83.64728 -110.49351 5.080392 117.136534 -134.00091 16.372601 -158.301735 8.904359 -19.655147 4.972053 -168.492349 6.814313 87.979565 -95.918586 9.331968 41.469338 -60.028927 -68.541446 -125.713713 -111.879197 -71.590398 134.059718 169.165565 -66.053803 129.680805 20.903814 -20.052598 26.704447 -57.715045 -59.927569 -100.839015 -103.714712 23.389442 114.489574 -7.206475 -40.515149 -18.304219 98.085221 86.409251 -127.930619 155.509571 -29.9925 -165.548906 -137.468945 14.271622 160.429358 -172.389312 -0.942803 -98.455541 -161.533981 -15.025193 -130.46512 -166.409382 -29.582901 -78.823836 90.646252 -2.219169 -64.577684 -61.05241 -55.954144 -21.953053 106.132191 79.54605 -50.79644 -20.733187 -70.505325 -23.651399 138.329365 -72.414361 -177.912921 16.622665 -18.118381 -11.425864 178.127574 67.188141 128.841356 93.076249 66.798107 -110.616121 -10.827677 -63.673868 11.761728 -7.193684 -22.834294 -0.0 -24.664817 -38.349347 -157.442839 -61.555285 -36.6325 -143.872937 5.935865 16.680679 -93.7783 -72.659004 3.818973 -25.787157 79.685857 33.235968 -148.003823 -5.990024 -50.634122 23.679357 -97.004358 20.744469 -172.656487
1.9783 63.818 -1.8304 175.489265 37.715269 -178.773504 -15.211208 10.383041 2.167777 11.277012 -9.670489 -11.510804 -7.126843 26.336641 80.824024 -39.001216 -10.678471 -113.313001 -66.312104 1.256811 -1.923724 3.97409 -0.196112 -5.647993 -49.419572 59.216951 46.951487 113.192747 -36.695684 62.965412 100.617581 -22.31972 53.999027 -160.12819 47.873538 130.881827 -1.856562 6.34719 5.963838 47.356656 -53.691885 9.296508 -131.180382 -60.781289 168.763078 -83.724922 -38.666333 -173.97862 -35.014688 45.486462 34.799845 -82.083226 68.390819 75.397366 -23.096666 77.472957 74.036852 122.232776 33.36879 -109.436423 -132.824329 19.312515 -128.533985 -88.949943 44.645352 165.995236 151.34696 -42.598695 -173.908671 -122.225735 34.337515 140.953666 -12.225496 4.293615 -42.949059 -0.198553 56.989242 17.181101 95.919093 31.593741 -55.732931 14.979217 7.149542 2.329953 160.740196 -19.720118 -113.645408 18.057698 -3.88686 -4.371558 11.145415 -4.867014 -5.933281 -34.733687 -38.804464 -8.433098 106.17148 47.972943 -111.536036 115.672674 38.228655 -134.347213 -67.338912 -86.727303 -78.985849 56.763081 -2.644442 -3.700254 -6.086289 84.287271 -180.0 161.003249 27.768162 -114.094813 -71.43416 -20.825297 -130.321555 48.263068 53.283549 -124.855858 -88.393612 22.194034 -47.520273 87.914763 56.421151 91.737499 39.57249 16.360521 -11.487495 24.846065 -30.706797 -19.40864
2.7954 64.2848 -1.6519 175.207807 40.618723 -178.308411 -17.919881 6.472355 53.04754 2.616633 -13.33332 -59.488412 0.862834 33.216425 92.896885 -47.010185 8.923784 -131.770444 -65.549308 -13.210182 20.391496 -3.354972 0.23107 -7.877688 -3.264317 -33.041224 -11.55822 112.183564 57.799573 -63.772793 163.66685 28.255261 103.99659 177.809479 -8.278104 139.153639 -173.656169 -21.937179 80.823949 -62.563132 15.686809 28.659622 9.09101 -49.436882 -24.246911 179.967419 -68.538432 55.714683 13.921344 -22.086987 2.918819 -163.673191 -54.097172 124.221477 31.117448 -0.513006 -0.085068 -97.601903 84.079764 58.865519 29.28694 16.020531 -8.521616 -148.170105 -11.613579 -95.240188 -4.299985 -1.272512 -1.401203 -111.022236 -82.633465 -33.140297 3.953145 86.789123 -46.880205 0.351389 57.874334 11.250433 157.617966 8.887703 -81.170571 33.903329 8.376176 -19.595751 64.944625 44.313088 -51.114519 1.783783 -8.587498 -11.815075 157.590531 1.798315 -130.15744 20.454363 34.924094 -30.782094 -84.194367 -84.918676 -63.116052 19.811997 61.386699 -21.205469 -65.243298 -71.191365 -67.552326 116.13418 80.234262 -66.270492 -55.930628 5.285311 -41.262565 60.439586 -36.83761 71.219728 67.44017 37.991355 -179.959374 -15.565594 60.65713 99.289996 0.981514 -2.73558 19.746476 3.897704 9.942782 -0.597617 17.361863 39.755961 52.38399 -75.48842 13.830633 -27.523846
